HIERARCHY
ROOT Hips
{
	OFFSET 0.000000 97.167313 0.000000
	CHANNELS 6 Xposition Yposition Zposition Xrotation Yrotation Zrotation
	JOINT Spine
	{
		OFFSET 0.000000 13.784798 0.064400
		CHANNELS 3 Xrotation Yrotation Zrotation
		JOINT Spine1
		{
			OFFSET 0.000000 12.037903 0.404700
			CHANNELS 3 Xrotation Yrotation Zrotation
			JOINT Spine2
			{
				OFFSET 0.000000 17.795601 0.420200
				CHANNELS 3 Xrotation Yrotation Zrotation
				JOINT Neck
				{
					OFFSET 0.000000 39.131302 11.954600
					CHANNELS 3 Xrotation Yrotation Zrotation
					JOINT Head
					{
						OFFSET 0.000000 14.456192 15.627699
						CHANNELS 3 Xrotation Yrotation Zrotation
						JOINT HeadTop_End
						{
							OFFSET 0.000000 15.703506 7.603401
							CHANNELS 3 Xrotation Yrotation Zrotation
							End Site
							{
								OFFSET 0.000000 17.447403 0.000000
							}
						}
					}
				}
				JOINT LeftShoulder
				{
					OFFSET 17.399500 24.608795 1.168800
					CHANNELS 3 Xrotation Yrotation Zrotation
					JOINT LeftArm
					{
						OFFSET 18.980635 5.765305 1.818600
						CHANNELS 3 Xrotation Yrotation Zrotation
						JOINT LeftForeArm
						{
							OFFSET 49.290169 0.000000 0.000000
							CHANNELS 3 Xrotation Yrotation Zrotation
							JOINT LeftHand
							{
								OFFSET 31.562012 0.000000 0.000000
								CHANNELS 3 Xrotation Yrotation Zrotation
								JOINT LeftHandThumb1
								{
									OFFSET 6.133995 -4.388519 7.076070
									CHANNELS 3 Xrotation Yrotation Zrotation
									JOINT LeftHandThumb2
									{
										OFFSET 6.037666 -3.485840 3.485847
										CHANNELS 3 Xrotation Yrotation Zrotation
										JOINT LeftHandThumb3
										{
											OFFSET 6.496506 -3.750763 3.750761
											CHANNELS 3 Xrotation Yrotation Zrotation
											JOINT LeftHandThumb4
											{
												OFFSET 5.616882 -3.242905 3.242910
												CHANNELS 3 Xrotation Yrotation Zrotation
												End Site
												{
													OFFSET -1.254608 7.132141 0.375429
												}
											}
										}
									}
								}
								JOINT LeftHandPinky1
								{
									OFFSET 18.920792 -0.453171 -11.426712
									CHANNELS 3 Xrotation Yrotation Zrotation
									JOINT LeftHandPinky2
									{
										OFFSET 4.919586 0.000000 0.000000
										CHANNELS 3 Xrotation Yrotation Zrotation
										JOINT LeftHandPinky3
										{
											OFFSET 5.233047 0.000000 0.000000
											CHANNELS 3 Xrotation Yrotation Zrotation
											JOINT LeftHandPinky4
											{
												OFFSET 5.571716 0.000000 0.000000
												CHANNELS 3 Xrotation Yrotation Zrotation
												End Site
												{
													OFFSET -3.459808 4.342407 -0.466164
												}
											}
										}
									}
								}
								JOINT LeftHandRing1
								{
									OFFSET 22.726120 -0.094986 -6.500475
									CHANNELS 3 Xrotation Yrotation Zrotation
									JOINT LeftHandRing2
									{
										OFFSET 6.408615 0.000000 0.000000
										CHANNELS 3 Xrotation Yrotation Zrotation
										JOINT LeftHandRing3
										{
											OFFSET 6.150223 0.000000 0.000000
											CHANNELS 3 Xrotation Yrotation Zrotation
											JOINT LeftHandRing4
											{
												OFFSET 6.145386 0.000000 0.000000
												CHANNELS 3 Xrotation Yrotation Zrotation
												End Site
												{
													OFFSET -3.671402 4.923981 -0.202372
												}
											}
										}
									}
								}
								JOINT LeftHandMiddle1
								{
									OFFSET 23.373947 0.000000 0.000001
									CHANNELS 3 Xrotation Yrotation Zrotation
									JOINT LeftHandMiddle2
									{
										OFFSET 6.996567 0.000000 0.000000
										CHANNELS 3 Xrotation Yrotation Zrotation
										JOINT LeftHandMiddle3
										{
											OFFSET 7.015945 0.000000 0.000000
											CHANNELS 3 Xrotation Yrotation Zrotation
											JOINT LeftHandMiddle4
											{
												OFFSET 7.721573 0.000000 0.000000
												CHANNELS 3 Xrotation Yrotation Zrotation
												End Site
												{
													OFFSET -4.651108 6.158463 0.251582
												}
											}
										}
									}
								}
								JOINT LeftHandIndex1
								{
									OFFSET 21.310577 -0.490082 6.209344
									CHANNELS 3 Xrotation Yrotation Zrotation
									JOINT LeftHandIndex2
									{
										OFFSET 7.536453 0.000000 0.000000
										CHANNELS 3 Xrotation Yrotation Zrotation
										JOINT LeftHandIndex3
										{
											OFFSET 7.512344 0.000000 0.000000
											CHANNELS 3 Xrotation Yrotation Zrotation
											JOINT LeftHandIndex4
											{
												OFFSET 10.212402 0.000000 0.000001
												CHANNELS 3 Xrotation Yrotation Zrotation
												End Site
												{
													OFFSET -5.180801 8.690506 1.388433
												}
											}
										}
									}
								}
							}
						}
					}
				}
				JOINT RightShoulder
				{
					OFFSET -17.399500 24.608795 1.168800
					CHANNELS 3 Xrotation Yrotation Zrotation
					JOINT RightArm
					{
						OFFSET -18.980635 5.765305 1.818600
						CHANNELS 3 Xrotation Yrotation Zrotation
						JOINT RightForeArm
						{
							OFFSET -49.290169 0.000000 0.000000
							CHANNELS 3 Xrotation Yrotation Zrotation
							JOINT RightHand
							{
								OFFSET -31.562012 0.000000 0.000000
								CHANNELS 3 Xrotation Yrotation Zrotation
								JOINT RightHandThumb1
								{
									OFFSET -6.133995 -4.388519 7.076070
									CHANNELS 3 Xrotation Yrotation Zrotation
									JOINT RightHandThumb2
									{
										OFFSET -6.037666 -3.485840 3.485847
										CHANNELS 3 Xrotation Yrotation Zrotation
										JOINT RightHandThumb3
										{
											OFFSET -6.496506 -3.750763 3.750761
											CHANNELS 3 Xrotation Yrotation Zrotation
											JOINT RightHandThumb4
											{
												OFFSET -5.616882 -3.242905 3.242910
												CHANNELS 3 Xrotation Yrotation Zrotation
												End Site
												{
													OFFSET 1.254608 7.132141 0.375429
												}
											}
										}
									}
								}
								JOINT RightHandIndex1
								{
									OFFSET -21.310577 -0.490082 6.209344
									CHANNELS 3 Xrotation Yrotation Zrotation
									JOINT RightHandIndex2
									{
										OFFSET -7.536453 0.000000 0.000000
										CHANNELS 3 Xrotation Yrotation Zrotation
										JOINT RightHandIndex3
										{
											OFFSET -7.512344 0.000000 0.000000
											CHANNELS 3 Xrotation Yrotation Zrotation
											JOINT RightHandIndex4
											{
												OFFSET -10.212402 0.000000 0.000001
												CHANNELS 3 Xrotation Yrotation Zrotation
												End Site
												{
													OFFSET 5.180801 8.690506 1.388433
												}
											}
										}
									}
								}
								JOINT RightHandMiddle1
								{
									OFFSET -23.373947 0.000000 0.000001
									CHANNELS 3 Xrotation Yrotation Zrotation
									JOINT RightHandMiddle2
									{
										OFFSET -6.996567 0.000000 0.000000
										CHANNELS 3 Xrotation Yrotation Zrotation
										JOINT RightHandMiddle3
										{
											OFFSET -7.015945 0.000000 0.000000
											CHANNELS 3 Xrotation Yrotation Zrotation
											JOINT RightHandMiddle4
											{
												OFFSET -7.721573 0.000000 0.000000
												CHANNELS 3 Xrotation Yrotation Zrotation
												End Site
												{
													OFFSET 4.651108 6.158463 0.251582
												}
											}
										}
									}
								}
								JOINT RightHandRing1
								{
									OFFSET -22.726120 -0.094986 -6.500475
									CHANNELS 3 Xrotation Yrotation Zrotation
									JOINT RightHandRing2
									{
										OFFSET -6.408615 0.000000 0.000000
										CHANNELS 3 Xrotation Yrotation Zrotation
										JOINT RightHandRing3
										{
											OFFSET -6.150223 0.000000 0.000000
											CHANNELS 3 Xrotation Yrotation Zrotation
											JOINT RightHandRing4
											{
												OFFSET -6.145386 0.000000 0.000000
												CHANNELS 3 Xrotation Yrotation Zrotation
												End Site
												{
													OFFSET 3.671402 4.923981 -0.202372
												}
											}
										}
									}
								}
								JOINT RightHandPinky1
								{
									OFFSET -18.920792 -0.453171 -11.426712
									CHANNELS 3 Xrotation Yrotation Zrotation
									JOINT RightHandPinky2
									{
										OFFSET -4.919586 0.000000 0.000000
										CHANNELS 3 Xrotation Yrotation Zrotation
										JOINT RightHandPinky3
										{
											OFFSET -5.233047 0.000000 0.000000
											CHANNELS 3 Xrotation Yrotation Zrotation
											JOINT RightHandPinky4
											{
												OFFSET -5.571716 0.000000 0.000000
												CHANNELS 3 Xrotation Yrotation Zrotation
												End Site
												{
													OFFSET 3.459808 4.342407 -0.466164
												}
											}
										}
									}
								}
							}
						}
					}
				}
			}
		}
	}
	JOINT LeftUpLeg
	{
		OFFSET 19.899099 -7.885101 -3.429500
		CHANNELS 3 Xrotation Yrotation Zrotation
		JOINT LeftLeg
		{
			OFFSET 1.745560 -36.997807 10.304700
			CHANNELS 3 Xrotation Yrotation Zrotation
			JOINT LeftFoot
			{
				OFFSET -1.745558 -29.803308 -13.615400
				CHANNELS 3 Xrotation Yrotation Zrotation
				JOINT LeftToeBase
				{
					OFFSET 1.181900 -18.539904 15.226099
					CHANNELS 3 Xrotation Yrotation Zrotation
					JOINT LeftToe_End
					{
						OFFSET -0.863701 1.402801 16.534700
						CHANNELS 3 Xrotation Yrotation Zrotation
						End Site
						{
							OFFSET 0.000000 16.616566 0.000000
						}
					}
				}
			}
		}
	}
	JOINT RightUpLeg
	{
		OFFSET -19.899099 -7.885101 -3.429500
		CHANNELS 3 Xrotation Yrotation Zrotation
		JOINT RightLeg
		{
			OFFSET -1.745560 -36.997807 10.304700
			CHANNELS 3 Xrotation Yrotation Zrotation
			JOINT RightFoot
			{
				OFFSET 1.745558 -29.803308 -13.615400
				CHANNELS 3 Xrotation Yrotation Zrotation
				JOINT RightToeBase
				{
					OFFSET -1.181900 -18.539904 15.226099
					CHANNELS 3 Xrotation Yrotation Zrotation
					JOINT RightToe_End
					{
						OFFSET 0.863701 1.402801 16.534700
						CHANNELS 3 Xrotation Yrotation Zrotation
						End Site
						{
							OFFSET 0.000000 16.616566 0.000000
						}
					}
				}
			}
		}
	}
}
MOTION
Frames: 6
Frame Time: 0.033333
-9.060543 77.759720 3.994513 -6.522150 -61.872088 -5.057460 30.080399 6.000739 -4.028002 9.703979 2.449335 -1.089319 9.711589 2.442121 -1.097344 -7.114454 -16.201002 -2.552869 8.218724 34.098271 -11.471992 0.000003 0.000001 -0.000001 0.302937 5.126594 -6.172878 -27.022066 22.218028 -15.401419 -0.969152 -59.400209 9.227039 -53.251952 -5.311173 2.379749 3.131978 14.216314 -19.086508 1.083741 18.441907 20.543483 1.420085 38.788337 21.436009 -0.000001 0.000001 0.000000 -6.497479 19.493551 -63.820598 10.929987 12.439964 -91.866283 5.624295 12.849666 -61.873830 -0.000002 -0.000002 -0.000004 -0.127272 16.605597 -63.663128 7.055523 8.627833 -74.067487 7.032523 10.044529 -73.182253 0.000001 0.000002 0.000005 3.456828 11.185547 -71.730763 6.555756 9.517404 -73.061659 5.164478 7.559217 -62.819586 0.000003 0.000000 0.000008 7.357293 6.884748 -66.751534 6.476869 7.446377 -77.523419 4.627892 10.066109 -62.797961 -0.000001 0.000003 0.000001 0.620372 3.819993 -4.640177 -23.769885 -12.175973 -4.575313 0.015469 23.000922 -0.040533 -3.181813 -0.799074 11.998130 -0.512449 3.948896 3.623362 5.409287 -26.719606 -10.884808 -0.285875 -3.993378 -3.634587 -0.000001 -0.000003 0.000003 0.285416 4.699444 -16.641198 0.425553 -2.079401 19.148345 6.888661 -10.605565 21.430256 -0.000001 0.000002 0.000001 0.132801 -2.321986 -6.119814 1.820592 -6.185735 36.554226 0.234404 -1.065916 11.549796 -0.000004 0.000000 -0.000008 -0.277170 -10.915898 3.240070 1.523872 -4.444757 32.396154 0.568348 -3.791672 19.017338 -0.000003 -0.000002 -0.000003 -0.287168 -19.490455 4.634153 2.434010 -5.415102 41.285977 0.721017 -4.493357 22.902046 -0.000001 0.000000 0.000000 -44.467766 13.460811 22.854400 80.091010 -9.446957 0.921250 26.171236 -6.875680 -6.466100 -17.036204 -2.267541 7.834445 0.000002 -0.000002 -0.000001 -91.249258 -8.863739 0.490495 116.243167 -3.170633 -10.764230 36.603059 3.109900 12.861351 0.172607 0.000096 -0.000007 -0.000000 0.000001 -0.000002 
-9.273447 77.753494 3.994432 -6.683746 -61.401775 -5.239668 30.081584 5.960156 -4.039526 9.716071 2.449312 -1.089319 9.723851 2.442163 -1.097355 -6.954361 -16.065010 -2.216937 6.733405 35.353636 -10.008476 -0.000000 0.000001 0.000001 0.241116 4.983982 -4.785345 -28.443515 21.307294 -13.115876 -0.964147 -59.214427 9.231620 -52.990998 -5.653418 1.192903 3.131979 14.216314 -19.086506 1.083740 18.441910 20.543484 1.420087 38.788337 21.436013 -0.000000 0.000001 0.000000 -6.497481 19.493551 -63.820598 10.929997 12.439958 -91.866283 5.624297 12.849662 -61.873816 -0.000000 0.000000 0.000001 -0.127272 16.605597 -63.663128 7.055528 8.627833 -74.067487 7.032522 10.044530 -73.182253 0.000000 0.000001 0.000002 3.456836 11.185546 -71.730763 6.555754 9.517408 -73.061659 5.164481 7.559215 -62.819586 0.000004 0.000002 0.000007 7.357293 6.884749 -66.751534 6.476869 7.446374 -77.523419 4.627892 10.066113 -62.797961 -0.000002 0.000001 -0.000001 0.802884 3.544797 -6.188648 -25.373007 -13.064291 -4.817747 0.016435 24.607618 -0.053441 -2.137092 -6.806965 9.861962 -0.512442 3.948893 3.623359 5.409285 -26.719606 -10.884809 -0.285873 -3.993374 -3.634588 0.000002 -0.000002 0.000004 0.285183 4.711176 -16.721592 0.423471 -2.068673 19.067742 7.414146 -11.636147 21.219822 -0.000001 -0.000001 -0.000001 0.137223 -2.305397 -6.224080 1.801973 -6.160329 36.357958 0.229119 -1.049756 11.445316 -0.000005 0.000002 -0.000002 -0.289506 -10.915120 3.148662 1.509998 -4.422633 32.242212 0.564973 -3.777589 18.928408 -0.000001 0.000002 -0.000003 -0.288540 -19.476826 4.554050 2.398791 -5.374998 40.972447 0.719832 -4.481429 22.822148 -0.000000 0.000002 0.000001 -44.494721 13.277878 23.079885 80.127469 -8.371034 0.863954 26.697085 -7.166663 -5.035886 -16.969036 -1.862210 6.369577 0.000002 -0.000002 0.000000 -91.437634 -8.675781 0.325496 116.449370 -3.222562 -10.735921 37.355961 3.326497 13.567437 0.172595 0.000055 -0.000018 0.000003 -0.000002 0.000001 
-9.352167 77.747299 4.065501 -6.841301 -60.951563 -5.462519 30.088974 5.950029 -4.003667 9.753307 2.449317 -1.089313 9.761366 2.442146 -1.097347 -6.945631 -16.122064 -2.205413 6.579267 34.957854 -9.806900 0.000001 0.000000 -0.000001 0.159742 4.553520 -3.360138 -29.843402 19.912568 -10.965424 -0.949573 -58.891892 9.240352 -52.677718 -5.715005 0.288512 3.131982 14.216316 -19.086508 1.083738 18.441905 20.543483 1.420085 38.788337 21.436013 0.000000 0.000001 -0.000001 -6.497480 19.493551 -63.820598 10.929992 12.439960 -91.866290 5.624296 12.849662 -61.873816 -0.000003 -0.000001 -0.000006 -0.127273 16.605599 -63.663128 7.055524 8.627834 -74.067487 7.032528 10.044528 -73.182246 -0.000002 -0.000001 0.000003 3.456831 11.185550 -71.730756 6.555757 9.517403 -73.061659 5.164477 7.559216 -62.819579 0.000004 -0.000000 0.000004 7.357291 6.884753 -66.751534 6.476869 7.446376 -77.523412 4.627891 10.066108 -62.797961 0.000000 0.000001 0.000001 0.978670 3.237641 -7.793057 -27.048673 -13.990171 -5.140805 0.019465 26.334500 -0.069644 -1.496871 -13.305795 7.802451 -0.512442 3.948893 3.623359 5.409275 -26.719606 -10.884811 -0.285875 -3.993378 -3.634587 -0.000002 0.000000 -0.000001 0.294937 4.743668 -16.936914 0.417271 -2.038879 18.852601 8.068539 -12.552393 20.687034 0.000003 0.000000 0.000004 0.145705 -2.260209 -6.502506 1.752558 -6.092275 35.833822 0.215202 -1.005468 11.166314 -0.000000 -0.000000 -0.000009 -0.317967 -10.912631 2.904542 1.473196 -4.363434 31.831243 0.551972 -3.738685 18.690686 -0.000003 -0.000001 -0.000002 -0.292187 -19.440443 4.340241 2.305873 -5.266904 40.135674 0.706415 -4.449224 22.608266 0.000002 0.000003 -0.000001 -44.706286 13.202549 23.107372 80.212287 -8.599245 0.888434 27.157143 -7.103825 -4.712669 -16.796523 -1.835927 6.363298 0.000003 -0.000001 0.000001 -91.850991 -8.431588 0.103381 116.750418 -3.263881 -10.603958 37.669962 3.434341 13.768662 0.172579 0.000049 -0.000044 0.000002 0.000001 -0.000001 
-9.421684 77.738533 4.134340 -6.995685 -60.499070 -5.685639 30.103915 5.935509 -3.958850 9.811696 2.449319 -1.089307 9.820161 2.439234 -1.096914 -6.956598 -16.173442 -2.209299 6.407021 34.582757 -9.723983 -0.000003 0.000000 0.000000 0.089035 3.903318 -1.927039 -31.175633 18.194972 -9.121812 -0.930787 -58.492319 9.253951 -52.305937 -5.464926 -0.137920 3.131980 14.216314 -19.086513 1.083740 18.441907 20.543483 1.420078 38.788347 21.436009 -0.000000 0.000001 0.000000 -6.497479 19.493544 -63.820598 10.929993 12.439956 -91.866283 5.624297 12.849661 -61.873823 -0.000000 -0.000000 -0.000004 -0.127270 16.605595 -63.663128 7.055524 8.627833 -74.067487 7.032534 10.044525 -73.182253 -0.000003 -0.000001 0.000005 3.456832 11.185550 -71.730763 6.555759 9.517407 -73.061659 5.164476 7.559215 -62.819579 0.000001 0.000001 0.000004 7.357289 6.884748 -66.751534 6.476865 7.446372 -77.523412 4.627892 10.066110 -62.797961 -0.000001 0.000003 0.000002 1.155980 3.043454 -9.406052 -28.739537 -14.821543 -5.490436 0.022076 28.007723 -0.087075 -1.373573 -17.846253 5.804603 -0.512443 3.948893 3.623359 5.409282 -26.719603 -10.884812 -0.285876 -3.993376 -3.634584 0.000002 -0.000003 -0.000000 0.309446 4.790690 -17.249221 0.402697 -1.995847 18.540468 8.788992 -13.368909 19.930087 -0.000003 -0.000001 -0.000001 0.153323 -2.194264 -6.906459 1.682068 -5.992730 35.074032 0.202321 -0.939832 10.761965 0.000001 0.000002 -0.000004 -0.358438 -10.908831 2.550652 1.420569 -4.277142 31.235360 0.533293 -3.682156 18.346043 -0.000001 0.000002 -0.000005 -0.297438 -19.387627 4.030221 2.174034 -5.107763 38.922878 0.686987 -4.402446 22.298175 0.000004 0.000004 -0.000001 -44.988175 13.119946 23.128272 80.350967 -8.924930 0.918866 27.631556 -6.952279 -4.461567 -16.403333 -1.795865 6.380502 -0.000000 -0.000002 0.000002 -92.248064 -8.164638 -0.155510 117.041452 -3.269421 -10.452822 37.959118 3.557641 13.958204 0.172597 0.000085 -0.000007 0.000002 0.000000 0.000000 
-9.481709 77.728050 4.208495 -7.149916 -60.038258 -5.911091 30.128647 5.917182 -3.912422 9.887836 2.435445 -1.087219 9.896824 2.423042 -1.094445 -6.957824 -16.217743 -2.210967 6.360105 34.262790 -9.767957 -0.000002 0.000003 -0.000000 0.051839 3.103896 -0.513337 -32.411857 16.333738 -7.735371 -0.915566 -58.072071 9.267459 -51.882086 -4.868926 0.112003 3.131985 14.216315 -19.086509 1.083737 18.441909 20.543486 1.420083 38.788337 21.436009 0.000001 -0.000001 -0.000002 -6.497474 19.493549 -63.820605 10.929996 12.439963 -91.866290 5.624297 12.849661 -61.873823 0.000000 -0.000001 0.000003 -0.127267 16.605595 -63.663128 7.055526 8.627833 -74.067487 7.032525 10.044527 -73.182246 -0.000000 0.000002 0.000003 3.456841 11.185546 -71.730763 6.555758 9.517400 -73.061666 5.164476 7.559216 -62.819579 -0.000002 -0.000000 0.000004 7.357289 6.884750 -66.751541 6.476866 7.446368 -77.523419 4.627892 10.066111 -62.797968 -0.000002 0.000003 0.000001 1.342941 3.007215 -10.980489 -30.378380 -15.431151 -5.798733 0.019209 29.449754 -0.101123 -1.706094 -18.277223 3.781761 -0.512446 3.948891 3.623360 5.409284 -26.719604 -10.884810 -0.285872 -3.993375 -3.634583 -0.000002 -0.000003 0.000004 0.327037 4.846449 -17.620698 0.385665 -1.944553 18.169212 9.520812 -14.094425 19.043069 -0.000001 -0.000001 -0.000002 0.163179 -2.115947 -7.386908 1.599937 -5.873150 34.170706 0.187826 -0.861528 10.281055 0.000000 0.000000 -0.000008 -0.406994 -10.902536 2.129729 1.359159 -4.173733 30.526844 0.511510 -3.614854 17.936222 0.000001 0.000001 -0.000003 -0.303625 -19.324876 3.661544 2.021695 -4.914974 37.481291 0.664271 -4.346633 21.929291 0.000002 0.000001 0.000006 -45.323127 12.977909 23.208020 80.521653 -9.075539 0.941750 28.164405 -7.019236 -4.127616 -15.871382 -1.732865 6.387587 -0.000001 -0.000002 0.000002 -92.581452 -7.882164 -0.463273 117.304223 -3.263751 -10.287260 38.227401 3.670133 14.082129 0.172623 0.000088 0.000036 0.000000 0.000002 -0.000002 
-9.529703 77.716522 4.288292 -7.281660 -59.576673 -6.115050 30.163693 5.897036 -3.867964 9.978388 2.405366 -1.082658 9.988022 2.395244 -1.090224 -6.942269 -16.238954 -2.231962 6.350677 33.996478 -9.815580 0.000001 0.000001 -0.000000 0.062983 2.227412 0.856391 -33.532329 14.521580 -6.932314 -0.904960 -57.687184 9.277434 -51.437834 -3.913698 1.168113 3.131986 14.216314 -19.086509 1.083737 18.441910 20.543483 1.420083 38.788337 21.436011 0.000000 -0.000000 -0.000002 -6.497477 19.493553 -63.820598 10.929991 12.439963 -91.866283 5.624292 12.849659 -61.873823 0.000001 -0.000001 -0.000002 -0.127267 16.605600 -63.663121 7.055521 8.627831 -74.067487 7.032527 10.044526 -73.182260 -0.000001 -0.000002 0.000007 3.456836 11.185550 -71.730763 6.555756 9.517402 -73.061666 5.164475 7.559217 -62.819579 -0.000000 -0.000000 0.000008 7.357292 6.884750 -66.751534 6.476870 7.446376 -77.523419 4.627895 10.066108 -62.797968 -0.000002 0.000001 0.000001 1.546664 3.144081 -12.469451 -31.842414 -15.307011 -5.764392 0.008673 30.486382 -0.107465 -3.348689 -16.548293 1.394172 -0.512444 3.948893 3.623359 5.409277 -26.719606 -10.884810 -0.285874 -3.993377 -3.634584 -0.000000 -0.000002 0.000003 0.346000 4.905360 -18.013557 0.368058 -1.890276 17.776600 10.215707 -14.729200 18.116365 0.000000 -0.000001 0.000001 0.174327 -2.033203 -7.894921 1.515189 -5.745283 33.215808 0.173176 -0.778609 9.772477 0.000001 0.000001 -0.000008 -0.458443 -10.892807 1.684620 1.295654 -4.063615 29.777886 0.489000 -3.543453 17.502816 -0.000002 -0.000002 -0.000005 -0.310112 -19.258377 3.271737 1.865982 -4.706957 35.957739 0.640613 -4.287426 21.539300 0.000001 -0.000001 0.000005 -45.692613 12.791507 23.331697 80.707079 -9.059270 0.955903 28.739640 -7.259110 -3.721434 -15.223575 -1.648223 6.359121 0.000001 -0.000000 0.000000 -92.856183 -7.571870 -0.812656 117.551886 -3.244810 -10.107959 38.448596 3.772013 14.157191 0.172581 0.000114 -0.000009 0.000003 0.000000 0.000000 
